<?xml version="1.0" encoding="iso-8859-1"?>
<!-- Generator: Adobe Illustrator 19.0.0, SVG Export Plug-In . SVG Version: 6.00 Build 0)  -->
<svg version="1.1" id="Capa_1" xmlns="http://www.w3.org/2000/svg" xmlns:xlink="http://www.w3.org/1999/xlink" x="0px" y="0px"
	 viewBox="0 0 512 512" style="enable-background:new 0 0 512 512;" xml:space="preserve">
<g>
	<g>
		<path d="M496,384H320c-4.256,0-8.32,1.696-11.328,4.672L256,441.376l-52.672-52.672C200.32,385.696,196.256,384,192,384H16
			c-8.832,0-16,7.168-16,16c0,8.832,7.168,16,16,16h169.376l59.328,59.328c3.104,3.104,7.2,4.672,11.296,4.672
			s8.192-1.568,11.328-4.672L326.624,416H496c8.832,0,16-7.168,16-16C512,391.168,504.832,384,496,384z"/>
	</g>
</g>
<g>
	<g>
		<path d="M256,128c-88.32,0-160,71.68-160,160c0,22.752,4.928,44.352,13.472,64H192c12.8,0,24.864,4.992,33.952,14.048L256,396.128
			l30.048-30.048C295.136,356.992,307.2,352,320,352h82.528C411.072,332.352,416,310.752,416,288C416,199.68,344.32,128,256,128z"/>
	</g>
</g>
<g>
	<g>
		<path d="M256,32c-8.832,0-16,7.168-16,16v32c0,8.832,7.168,16,16,16c8.832,0,16-7.168,16-16V48C272,39.168,264.832,32,256,32z"/>
	</g>
</g>
<g>
	<g>
		<path d="M48,272H16c-8.832,0-16,7.168-16,16c0,8.832,7.168,16,16,16h32c8.832,0,16-7.168,16-16C64,279.168,56.832,272,48,272z"/>
	</g>
</g>
<g>
	<g>
		<path d="M496,272h-32c-8.832,0-16,7.168-16,16c0,8.832,7.168,16,16,16h32c8.832,0,16-7.168,16-16C512,279.168,504.832,272,496,272
			z"/>
	</g>
</g>
<g>
	<g>
		<path d="M120.224,129.6L97.6,107.008c-6.24-6.24-16.384-6.24-22.624,0s-6.24,16.384,0,22.624L97.6,152.224
			c3.136,3.136,7.232,4.672,11.328,4.672c4.096,0,8.192-1.536,11.296-4.672C126.464,145.984,126.464,135.84,120.224,129.6z"/>
	</g>
</g>
<g>
	<g>
		<path d="M437.024,107.008c-6.24-6.24-16.384-6.24-22.624,0L391.776,129.6c-6.24,6.24-6.24,16.384,0,22.624
			c3.136,3.136,7.232,4.704,11.328,4.704s8.192-1.568,11.328-4.672l22.592-22.624C443.264,123.392,443.264,113.248,437.024,107.008z
			"/>
	</g>
</g>
<g>
</g>
<g>
</g>
<g>
</g>
<g>
</g>
<g>
</g>
<g>
</g>
<g>
</g>
<g>
</g>
<g>
</g>
<g>
</g>
<g>
</g>
<g>
</g>
<g>
</g>
<g>
</g>
<g>
</g>
</svg>
